<svg xmlns="http://www.w3.org/2000/svg"  viewBox="0 0 64 64" width="64px" height="64px" baseProfile="basic"><path fill="#a0effe" d="M9.447,18.14l1.814,1.037l-1.06-8.483L6.823,8.16l0.624,6.869C7.566,16.33,8.312,17.492,9.447,18.14z"/><path fill="#37d0ee" d="M13.874,15.881l-1.053-7.36c-0.036-0.252-0.167-0.48-0.365-0.639L8.187,4.467	c-0.688-0.551-1.7-0.006-1.621,0.871L6.823,8.16l3.378,2.534l1.06,8.483l5.351,3.058l-0.047-4.701L13.874,15.881z"/><path fill="#a0effe" d="M54.553,18.14l-1.814,1.037l1.06-8.483l3.378-2.534l-0.624,6.869	C56.434,16.33,55.688,17.492,54.553,18.14z"/><path fill="#37d0ee" d="M50.126,15.881l1.053-7.36c0.036-0.252,0.167-0.48,0.365-0.639l4.269-3.415	c0.688-0.551,1.7-0.006,1.621,0.871L57.177,8.16l-3.378,2.534l-1.06,8.483l-5.351,3.058l0.047-4.701L50.126,15.881z"/><ellipse cx="32" cy="61" opacity=".3" rx="19" ry="3"/><circle cx="14.689" cy="31.852" r="5.77" fill="#ffce29"/><circle cx="49.311" cy="31.852" r="5.77" fill="#ffce29"/><path fill="#9c34c2" d="M47.902,47.367l-6.451,6.451c-1.125,1.125-2.651,1.757-4.243,1.757H26.791	c-1.591,0-3.117-0.632-4.243-1.757l-6.451-6.451c-1.313-1.313-2.05-3.093-2.05-4.95V22.235c0-9.915,8.038-17.952,17.952-17.952l0,0	c9.915,0,17.952,8.038,17.952,17.952v20.182C49.952,44.273,49.215,46.054,47.902,47.367z"/><path fill="#a0effe" d="M35.639,9.412h-7.277c-0.459,0-0.859,0.312-0.97,0.757l-2.554,10.216	c-0.135,0.539,0.195,1.084,0.735,1.215l1.666,0.402c0.534,0.129,1.072-0.197,1.205-0.729l0.507-2.026h6.1l0.506,2.025	c0.133,0.533,0.671,0.859,1.205,0.73l1.667-0.402c0.54-0.13,0.87-0.676,0.735-1.215L36.61,10.169	C36.498,9.724,36.098,9.412,35.639,9.412z M29.946,15.636l0.622-2.49h2.988l0.622,2.49H29.946z"/><path fill="#ffce29" d="M26.791,55.575h10.417c1.591,0,3.117-0.632,4.243-1.757l2.09-2.09v-8.94	c0-1.722-1.102-3.25-2.735-3.795l-7.541-2.514c-0.821-0.274-1.709-0.274-2.53,0l-7.541,2.514c-1.633,0.544-2.735,2.073-2.735,3.795	v8.94l2.09,2.09C23.674,54.943,25.2,55.575,26.791,55.575z"/><path fill="#ffce29" d="M18.618,26.282c-0.472,1.556-0.953,4.159-0.153,6.949c0.298,1.04,1.36,1.667,2.41,1.408	c1.928-0.476,5.094-1.257,7.314-1.804c1.388-0.342,1.972-1.98,1.127-3.132c-1.424-1.94-4.077-4.37-8.599-4.827	C19.774,24.78,18.893,25.376,18.618,26.282z"/><path fill="#ffce29" d="M45.524,26.282c0.472,1.556,0.953,4.159,0.153,6.949c-0.298,1.04-1.36,1.667-2.41,1.408	c-1.928-0.476-5.094-1.257-7.314-1.804c-1.388-0.342-1.972-1.98-1.127-3.132c1.424-1.94,4.077-4.37,8.599-4.827	C44.368,24.78,45.25,25.376,45.524,26.282z"/><path fill="orange" d="M36,49h-8c-1.105,0-2-0.895-2-2v0c0-1.105,0.895-2,2-2h8c1.105,0,2,0.895,2,2v0	C38,48.105,37.105,49,36,49z"/><line x1="38.5" x2="42.5" y1="30.5" y2="29.5" fill="none" stroke="#bd6300" stroke-linecap="round" stroke-miterlimit="10" stroke-width="3"/><line x1="21.5" x2="25.5" y1="29.5" y2="30.5" fill="none" stroke="#bd6300" stroke-linecap="round" stroke-miterlimit="10" stroke-width="3"/><path d="M47.902,47.367c1.313-1.313,2.05-3.093,2.05-4.95v-5c-2.761,0-5,2.238-5,5 c0,0.534-0.208,1.037-0.585,1.414l-6.451,6.45c-1.432,1.432-1.804,3.514-1.135,5.294h0.428c1.591,0,3.117-0.632,4.243-1.757 L47.902,47.367z" opacity=".15"/><path fill="#fff" d="M28.095,4.721c-8.035,1.784-14.048,8.942-14.048,17.514v0.489 c0.19,0.022,0.379,0.035,0.566,0.035c2.228,0,4.26-1.5,4.839-3.758c0.889-3.463,3.209-6.434,6.366-8.152 C28.032,9.644,28.951,7.015,28.095,4.721z" opacity=".3"/><path fill="none" stroke="#fff" stroke-linecap="round" stroke-linejoin="round" stroke-miterlimit="10" stroke-width="3" d="M20.333,13.714c1.111-1.517,2.511-2.811,4.117-3.799"/></svg>