<?xml version="1.0" encoding="utf-8"?>
<!-- Uploaded to: SVG Repo, www.svgrepo.com, Generator: SVG Repo Mixer Tools -->
<svg width="800px" height="800px" viewBox="0 -31 1086 1086" fill="#000000" class="icon"  version="1.1" xmlns="http://www.w3.org/2000/svg"><path d="M543.082003 0C243.559873 0 0 269.335592 0 600.284803V982.92329c0 2.343247 0.275676 4.686494 0.68919 7.029741 0 0.275676 0 0.68919 0.137838 0.964867A41.02061 41.02061 0 0 0 41.351422 1023.999035c10.889208 0 21.778415-4.27298 29.910861-12.681102l323.643793-337.565438h286.565351l323.643792 337.565438c8.132446 8.408122 19.021654 12.681103 29.910862 12.681102 2.067571 0 4.135142-0.275676 6.202713-0.551352 1.240543 0.137838 2.343247 0.413514 3.58379 0.413514 22.88112 0 41.351422-18.470302 41.351421-41.351421V600.284803C1086.164005 269.335592 842.466295 0 543.082003 0z m0 82.702843c253.897728 0 460.37916 232.257151 460.379159 517.58196v289.735626l-90.283937-94.143403V579.74693c0-224.813895-166.094876-407.725016-370.23306-407.725016S172.848942 354.933035 172.848942 579.74693v205.792241L82.702843 879.682574V600.284803C82.702843 314.959994 289.184275 82.702843 543.082003 82.702843z m0 237.219322c-114.267761 0-207.30846 101.448821-207.30846 226.192275v69.470388l-80.221758 83.66771v-119.505608c0-179.189493 129.016435-325.022173 287.530218-325.022173s287.530218 145.83268 287.530217 325.022173v129.843463l-80.221757-83.667709v-79.808244c-0.137838-124.743455-93.040698-226.192276-207.30846-226.192275z m-124.605617 226.192275c0-79.119053 55.824419-143.489433 124.605617-143.489432s124.605617 64.37038 124.605617 143.489432v44.797374H418.476386v-44.797374zM499.800848 1001.255753l82.702843 0.689191v-69.608227l-82.013652-0.68919zM499.800848 890.985296l82.702843 0.68919v-69.608226l-82.013652-0.68919zM499.800848 780.714838l82.702843 0.689191v-69.470388l-82.013652-0.689191z" /></svg>