<?xml version="1.0" encoding="utf-8"?>

<!-- Uploaded to: SVG Repo, www.svgrepo.com, Generator: SVG Repo Mixer Tools -->
<svg version="1.1" id="Icons" xmlns="http://www.w3.org/2000/svg" xmlns:xlink="http://www.w3.org/1999/xlink" 
	 viewBox="0 0 32 32" xml:space="preserve">
<style type="text/css">
	.st0{fill:none;stroke:#fff;stroke-width:2;stroke-linecap:round;stroke-linejoin:round;stroke-miterlimit:10;}
	.st1{fill:none;stroke:#fff;stroke-width:2;stroke-linejoin:round;stroke-miterlimit:10;}
</style>
<path class="st0" d="M27,25H5c-1.1,0-2-0.9-2-2v-4c0-2.2,1.8-4,4-4h18c2.2,0,4,1.8,4,4v4C29,24.1,28.1,25,27,25z"/>
<path class="st0" d="M26,15H6l2-4.6C8.6,9,10,8,11.6,8h8.7c1.6,0,3,1,3.7,2.4L26,15z"/>
<path class="st0" d="M10,25H4v2c0,1.1,0.9,2,2,2h2c1.1,0,2-0.9,2-2V25z"/>
<path class="st0" d="M28,25h-6v2c0,1.1,0.9,2,2,2h2c1.1,0,2-0.9,2-2V25z"/>
<line class="st0" x1="3" y1="14" x2="6.4" y2="14"/>
<line class="st0" x1="26" y1="14" x2="29" y2="14"/>
<path class="st0" d="M21,25H11l1.4-2.9c0.3-0.7,1-1.1,1.8-1.1h3.5c0.8,0,1.5,0.4,1.8,1.1L21,25z"/>
<line class="st0" x1="6" y1="20" x2="9" y2="20"/>
<line class="st0" x1="23" y1="20" x2="26" y2="20"/>
<path class="st0" d="M20,8h-8l0.8-3.2c0.1-0.4,0.5-0.8,1-0.8h4.4c0.5,0,0.9,0.3,1,0.8L20,8z"/>
</svg>